<svg xmlns="http://www.w3.org/2000/svg" width="176" height="176" viewBox="0 0 176 176">
    <g fill="none" fill-rule="nonzero">
        <path fill="#FCD088" d="M73.334 92.19h27.238v33.525H73.334z"/>
        <path fill="#FCD088" d="M88 92.19h14.667v33.525H88z"/>
        <path fill="#545E73" d="M121.184 116.672l-14.746-3.02-2.606-3.894a1.785 1.785 0 0 0-2.204-.656L88 124.959l-13.547-15.85a1.784 1.784 0 0 0-2.202.631l-2.69 3.912-14.745 3.02c-7.507 1.537-12.911 8.286-12.911 16.125v18.52C55.114 160.292 70.96 165.524 88 165.524s32.886-5.232 46.095-14.207v-18.52c0-7.839-5.404-14.588-12.911-16.125z"/>
        <path fill="#FFEDB5" d="M117.974 63.427c.15-1.393.229-2.766.229-4.106 0-17.719-13.523-32.083-30.203-32.083S57.797 41.602 57.797 59.321c0 1.34.079 2.713.229 4.106-2.93.764-4.324 5.282-3.113 10.117 1.214 4.851 4.589 8.181 7.537 7.44.27-.068.52-.177.762-.305C68.67 91.661 77.736 100.571 88 100.571c10.264 0 19.33-8.909 24.788-19.892.242.128.493.237.761.305 2.949.741 6.324-2.589 7.538-7.44 1.21-4.835-.183-9.354-3.113-10.117z"/>
        <path fill="#FFEDB5" d="M117.994 63.428c.15-1.394.227-2.767.227-4.107 0-17.719-13.447-32.083-30.034-32.083-.063 0-.124.005-.187.005v73.323c.062 0 .125.005.187.005 10.206 0 19.222-8.909 24.65-19.892.24.128.49.237.757.304 2.932.742 6.288-2.588 7.496-7.439 1.204-4.835-.182-9.354-3.096-10.116z"/>
        <g transform="translate(67.048 106.857)">
            <ellipse cx="21.303" cy="24.653" fill="#FFF" rx="1.457" ry="1.413"/>
            <ellipse cx="21.303" cy="30.492" fill="#FFF" rx="1.457" ry="1.413"/>
            <path fill="#F0F0F0" d="M21.303 17.25L7.689.51a1.48 1.48 0 0 0-2.207.002L.22 6.51l11.351 17.612c.946 1.466 3.134 1.507 4.136.077l5.596-6.95z"/>
        </g>
        <path fill="#F0F0F0" d="M88 124.03l13.53-16.682a1.468 1.468 0 0 1 2.193.003l5.23 5.977-11.282 17.55c-.94 1.462-3.114 1.503-4.11.077L88 124.03z"/>
        <path fill="#444" d="M102.363 62.853c-4.054 0-7.458 2.699-8.41 6.33h-9.41c-.952-3.631-4.356-6.33-8.41-6.33-3.585 0-6.67 2.11-7.993 5.11l-7.042-6.798a1.46 1.46 0 0 0-2.014 0 1.34 1.34 0 0 0 0 1.944l8.368 8.078c0 .016-.003.033-.003.05 0 4.621 3.896 8.382 8.684 8.382 4.545 0 8.28-3.39 8.648-7.687h8.934c.369 4.297 4.103 7.687 8.648 7.687 4.789 0 8.685-3.76 8.685-8.383 0-4.622-3.896-8.383-8.685-8.383zM76.133 76.87c-3.218 0-5.836-2.527-5.836-5.633s2.618-5.633 5.836-5.633c3.218 0 5.836 2.527 5.836 5.633s-2.618 5.633-5.836 5.633zm26.23 0c-3.218 0-5.836-2.527-5.836-5.633s2.618-5.633 5.836-5.633c3.218 0 5.836 2.527 5.836 5.633s-2.618 5.633-5.836 5.633z"/>
        <path fill="#333" d="M100.677 62.857c-3.862 0-7.106 2.698-8.013 6.328H88v2.75h4.437c.351 4.295 3.91 7.684 8.24 7.684 4.563 0 8.275-3.76 8.275-8.38 0-4.621-3.712-8.382-8.275-8.382zm0 14.013c-3.066 0-5.56-2.527-5.56-5.632 0-3.105 2.494-5.632 5.56-5.632 3.066 0 5.56 2.527 5.56 5.632 0 3.105-2.494 5.632-5.56 5.632z"/>
        <path fill="#444" d="M108.16 71.238a1.302 1.302 0 0 1-.921-2.223l7.87-7.871a1.302 1.302 0 1 1 1.843 1.841l-7.871 7.872a1.3 1.3 0 0 1-.92.381z"/>
        <path fill="#494948" d="M118.502 43.868c-4.02-6.73-9.36-12.623-15.975-16.139.762-1.105 1.185-2.313 1.185-3.582 0-5.236-7.16-9.48-15.992-9.48s-15.992 4.244-15.992 9.48c0 1.412.524 2.75 1.457 3.953-.163.076-.323.141-.486.22C51.207 38.557 54.072 71.124 55.366 67.71 56.66 64.3 58.55 63.97 58.55 63.97c11.224-5.307 18.17-16.594 18.17-16.594s38.455 7.49 32.909 51.101c0 0 24.276-28.827 8.874-54.608z"/>
        <path fill="#494948" d="M118.529 43.867c-3.999-6.73-9.31-12.623-15.89-16.14.757-1.105 1.177-2.313 1.177-3.581 0-5.218-7.073-9.45-15.816-9.48v36.95c10.825 5.824 25.234 18.939 21.7 46.86.001 0 24.15-28.827 8.829-54.61z"/>
        <g>
            <g transform="translate(102.667 108.952)">
                <ellipse cx="25.921" cy="26.173" fill="#F29F05" rx="25.723" ry="26.173"/>
                <path fill="#FFF" d="M40.007 13.477a2.118 2.118 0 0 0-2.984.545L25.028 31.56l-8.465-7.072a2.116 2.116 0 0 0-3.016.304 2.203 2.203 0 0 0 .298 3.068l10.259 8.57a2.127 2.127 0 0 0 1.652.476 2.15 2.15 0 0 0 1.467-.914l13.32-19.476a2.21 2.21 0 0 0-.536-3.038z"/>
            </g>
        </g>
    </g>
</svg>
